STARTFONT 2.1
FONT -Adobe-ITC Souvenir-Demi-R-Normal--17-120-100-100-P-94-ISO8859-1
SIZE 12 100 100
FONTBOUNDINGBOX 23 20 -2 -4

STARTPROPERTIES 30
FOUNDRY "Adobe"
FAMILY_NAME "ITC Souvenir"
WEIGHT_NAME "Demi"
SLANT "R"
SETWIDTH_NAME "Normal"
ADD_STYLE_NAME ""
PIXEL_SIZE 17
POINT_SIZE 120
RESOLUTION_X 100
RESOLUTION_Y 100
SPACING "P"
AVERAGE_WIDTH 94
CHARSET_REGISTRY "ISO8859"
CHARSET_ENCODING "1"
CAP_HEIGHT 12
X_HEIGHT 8
FACE_NAME "ITC Souvenir Demi"
COPYRIGHT "Copyright (c) 1984, 1987 Adobe Systems Incorporated. All Rights Reserved. Copyright (c) 1988, 1991 Digital Equipment Corporation. All Rights Reserved."
NOTICE "ITC Souvenir is a registered trademark of International Typeface Corporation.  "
_DEC_DEVICE_FONTNAMES "PS=Souvenir-Demi"
_DEC_PRODUCTINFO "DECwindows Fonts V2.2-1, 04-Dec-1991"
RELATIVE_SETWIDTH 50
RELATIVE_WEIGHT 60
CHARSET_COLLECTIONS "ASCII ISO8859-1 ADOBE-STANDARD"
FULL_NAME "ITC Souvenir Demi"
WEIGHT 10
QUAD_WIDTH 10
DEFAULT_CHAR 32
FONT_DESCENT 4
FONT_ASCENT 14
ENDPROPERTIES

CHARS 191

STARTCHAR space
ENCODING 32
SWIDTH 340 0
DWIDTH 5 0
BBX 1 1 0 0
BITMAP
00
ENDCHAR

STARTCHAR exclam
ENCODING 33
SWIDTH 360 0
DWIDTH 6 0
BBX 3 12 1 0
BITMAP
40
E0
E0
E0
E0
E0
40
00
40
E0
E0
40
ENDCHAR

STARTCHAR quotedbl
ENCODING 34
SWIDTH 580 0
DWIDTH 9 0
BBX 5 5 2 7
BITMAP
D8
D8
D8
90
90
ENDCHAR

STARTCHAR numbersign
ENCODING 35
SWIDTH 680 0
DWIDTH 10 0
BBX 8 10 1 1
BITMAP
12
12
12
7F
24
24
FE
48
48
48
ENDCHAR

STARTCHAR dollar
ENCODING 36
SWIDTH 680 0
DWIDTH 11 0
BBX 8 15 1 -2
BITMAP
10
10
3C
66
C2
E0
F8
7E
1F
07
83
C6
7C
10
10
ENDCHAR

STARTCHAR percent
ENCODING 37
SWIDTH 940 0
DWIDTH 15 0
BBX 13 12 0 0
BITMAP
3040
4840
CC80
CC80
CD00
4A60
3290
0598
0998
0998
1090
1060
ENDCHAR

STARTCHAR ampersand
ENCODING 38
SWIDTH 840 0
DWIDTH 14 0
BBX 13 12 0 0
BITMAP
0F00
1D80
3880
3980
1F00
3E78
7F30
E760
C3C0
C1C0
E3F8
7E70
ENDCHAR

STARTCHAR quoteright
ENCODING 39
SWIDTH 320 0
DWIDTH 5 0
BBX 4 5 0 7
BITMAP
60
F0
60
40
80
ENDCHAR

STARTCHAR parenleft
ENCODING 40
SWIDTH 340 0
DWIDTH 5 0
BBX 4 15 0 -3
BITMAP
10
30
60
60
E0
C0
C0
C0
C0
C0
E0
60
60
30
10
ENDCHAR

STARTCHAR parenright
ENCODING 41
SWIDTH 340 0
DWIDTH 5 0
BBX 4 15 0 -3
BITMAP
80
C0
60
60
70
30
30
30
30
30
70
60
60
C0
80
ENDCHAR

STARTCHAR asterisk
ENCODING 42
SWIDTH 400 0
DWIDTH 6 0
BBX 5 5 0 7
BITMAP
20
A8
70
A8
20
ENDCHAR

STARTCHAR plus
ENCODING 43
SWIDTH 660 0
DWIDTH 10 0
BBX 8 8 1 1
BITMAP
18
18
18
FF
FF
18
18
18
ENDCHAR

STARTCHAR comma
ENCODING 44
SWIDTH 340 0
DWIDTH 5 0
BBX 4 5 0 -2
BITMAP
60
F0
60
40
80
ENDCHAR

STARTCHAR minus
ENCODING 45
SWIDTH 660 0
DWIDTH 10 0
BBX 8 2 1 4
BITMAP
FF
FF
ENDCHAR

STARTCHAR period
ENCODING 46
SWIDTH 340 0
DWIDTH 5 0
BBX 4 3 0 0
BITMAP
60
F0
60
ENDCHAR

STARTCHAR slash
ENCODING 47
SWIDTH 460 0
DWIDTH 7 0
BBX 7 15 0 -3
BITMAP
02
02
04
04
08
08
10
10
10
20
20
40
40
80
80
ENDCHAR

STARTCHAR zero
ENCODING 48
SWIDTH 680 0
DWIDTH 11 0
BBX 9 12 1 0
BITMAP
1C00
7700
6300
E380
E380
E380
E380
E380
E380
6300
7700
1C00
ENDCHAR

STARTCHAR one
ENCODING 49
SWIDTH 680 0
DWIDTH 11 0
BBX 7 12 2 0
BITMAP
18
F8
38
38
38
38
38
38
38
38
38
FE
ENDCHAR

STARTCHAR two
ENCODING 50
SWIDTH 680 0
DWIDTH 11 0
BBX 8 12 2 0
BITMAP
7C
EE
C7
C7
07
0E
1C
38
70
E3
FE
FE
ENDCHAR

STARTCHAR three
ENCODING 51
SWIDTH 680 0
DWIDTH 11 0
BBX 8 12 2 0
BITMAP
7C
EE
C7
07
0E
3C
0E
07
07
C7
EE
7C
ENDCHAR

STARTCHAR four
ENCODING 52
SWIDTH 680 0
DWIDTH 11 0
BBX 8 12 1 0
BITMAP
0E
1E
3E
2E
6E
4E
CE
8E
FF
0E
0E
1F
ENDCHAR

STARTCHAR five
ENCODING 53
SWIDTH 680 0
DWIDTH 11 0
BBX 8 12 1 0
BITMAP
7F
7E
40
40
7C
7E
4E
07
07
C6
EE
7C
ENDCHAR

STARTCHAR six
ENCODING 54
SWIDTH 680 0
DWIDTH 11 0
BBX 9 12 1 0
BITMAP
0700
1C00
3800
7000
6000
EE00
F700
E380
E380
E380
7700
3E00
ENDCHAR

STARTCHAR seven
ENCODING 55
SWIDTH 680 0
DWIDTH 11 0
BBX 8 12 1 0
BITMAP
FF
FF
82
06
06
0C
0C
1C
1C
18
38
38
ENDCHAR

STARTCHAR eight
ENCODING 56
SWIDTH 680 0
DWIDTH 11 0
BBX 9 12 1 0
BITMAP
1E00
7300
6180
F380
7F00
3E00
7F00
E780
C380
C300
6700
3E00
ENDCHAR

STARTCHAR nine
ENCODING 57
SWIDTH 680 0
DWIDTH 11 0
BBX 9 12 1 0
BITMAP
3E00
7700
E380
E380
E380
7780
3B80
0300
0700
0E00
1C00
7000
ENDCHAR

STARTCHAR colon
ENCODING 58
SWIDTH 340 0
DWIDTH 5 0
BBX 4 7 0 0
BITMAP
60
F0
60
00
60
F0
60
ENDCHAR

STARTCHAR semicolon
ENCODING 59
SWIDTH 340 0
DWIDTH 5 0
BBX 4 9 0 -2
BITMAP
60
F0
60
00
60
F0
60
40
80
ENDCHAR

STARTCHAR less
ENCODING 60
SWIDTH 660 0
DWIDTH 10 0
BBX 8 9 1 0
BITMAP
01
07
1C
70
C0
70
1C
07
01
ENDCHAR

STARTCHAR equal
ENCODING 61
SWIDTH 660 0
DWIDTH 10 0
BBX 8 5 1 2
BITMAP
FF
FF
00
FF
FF
ENDCHAR

STARTCHAR greater
ENCODING 62
SWIDTH 660 0
DWIDTH 10 0
BBX 8 9 1 0
BITMAP
80
E0
38
0E
03
0E
38
E0
80
ENDCHAR

STARTCHAR question
ENCODING 63
SWIDTH 540 0
DWIDTH 8 0
BBX 7 12 0 0
BITMAP
7C
CE
C6
06
0E
1C
38
20
00
30
78
30
ENDCHAR

STARTCHAR at
ENCODING 64
SWIDTH 860 0
DWIDTH 13 0
BBX 11 12 1 0
BITMAP
1F00
71C0
4040
CF60
9920
9320
B260
96C0
DBA0
4040
71C0
1F00
ENDCHAR

STARTCHAR A
ENCODING 65
SWIDTH 740 0
DWIDTH 12 0
BBX 12 12 0 0
BITMAP
0600
0E00
0F00
1F00
1380
3380
21C0
3FC0
61C0
40E0
40E0
E1F0
ENDCHAR

STARTCHAR B
ENCODING 66
SWIDTH 740 0
DWIDTH 12 0
BBX 11 12 0 0
BITMAP
FF80
71C0
70C0
70C0
7180
7780
79C0
70C0
70E0
70E0
71C0
FF80
ENDCHAR

STARTCHAR C
ENCODING 67
SWIDTH 760 0
DWIDTH 12 0
BBX 11 12 0 0
BITMAP
0F80
3DE0
7060
7020
E000
E000
E000
E000
7020
7060
3DC0
0F00
ENDCHAR

STARTCHAR D
ENCODING 68
SWIDTH 820 0
DWIDTH 13 0
BBX 12 12 0 0
BITMAP
FF00
73C0
70E0
70E0
7070
7070
7070
7070
70E0
70E0
73C0
FF00
ENDCHAR

STARTCHAR E
ENCODING 69
SWIDTH 660 0
DWIDTH 10 0
BBX 10 12 0 0
BITMAP
FF80
7180
7080
7000
7100
7F00
7100
7000
7000
70C0
7180
FF80
ENDCHAR

STARTCHAR F
ENCODING 70
SWIDTH 620 0
DWIDTH 9 0
BBX 9 12 0 0
BITMAP
FF80
7180
7080
7000
7100
7F00
7100
7000
7000
7000
7000
F800
ENDCHAR

STARTCHAR G
ENCODING 71
SWIDTH 780 0
DWIDTH 12 0
BBX 11 12 0 0
BITMAP
0F80
3DE0
7060
7020
E000
E000
E3E0
E0E0
70E0
70E0
3DC0
0F00
ENDCHAR

STARTCHAR H
ENCODING 72
SWIDTH 820 0
DWIDTH 13 0
BBX 12 12 0 0
BITMAP
F9F0
70E0
70E0
70E0
70E0
7FE0
70E0
70E0
70E0
70E0
70E0
F9F0
ENDCHAR

STARTCHAR I
ENCODING 73
SWIDTH 340 0
DWIDTH 6 0
BBX 5 12 0 0
BITMAP
F8
70
70
70
70
70
70
70
70
70
70
F8
ENDCHAR

STARTCHAR J
ENCODING 74
SWIDTH 560 0
DWIDTH 9 0
BBX 9 12 -1 0
BITMAP
0F80
0700
0700
0700
0700
0700
0700
6700
E700
C700
6E00
3C00
ENDCHAR

STARTCHAR K
ENCODING 75
SWIDTH 780 0
DWIDTH 12 0
BBX 12 12 0 0
BITMAP
F9E0
70C0
7180
7300
7600
7E00
7F00
7380
71C0
71C0
70E0
F9F0
ENDCHAR

STARTCHAR L
ENCODING 76
SWIDTH 600 0
DWIDTH 10 0
BBX 10 12 0 0
BITMAP
F800
7000
7000
7000
7000
7000
7000
7000
7000
70C0
7180
FF80
ENDCHAR

STARTCHAR M
ENCODING 77
SWIDTH 920 0
DWIDTH 14 0
BBX 13 12 0 0
BITMAP
F078
7070
78F0
78F0
7D70
5D70
5E70
4E70
4E70
4470
4070
E0F8
ENDCHAR

STARTCHAR N
ENCODING 78
SWIDTH 760 0
DWIDTH 12 0
BBX 11 12 0 0
BITMAP
F0E0
7840
7C40
5C40
5E40
4F40
4740
43C0
43C0
41C0
40C0
E0C0
ENDCHAR

STARTCHAR O
ENCODING 79
SWIDTH 860 0
DWIDTH 14 0
BBX 13 12 0 0
BITMAP
0F80
3DE0
7070
7070
E038
E038
E038
E038
7070
7070
3DE0
0F80
ENDCHAR

STARTCHAR P
ENCODING 80
SWIDTH 680 0
DWIDTH 10 0
BBX 10 12 0 0
BITMAP
FF00
7380
71C0
71C0
7380
7380
7E00
7000
7000
7000
7000
F800
ENDCHAR

STARTCHAR Q
ENCODING 81
SWIDTH 860 0
DWIDTH 14 0
BBX 13 14 0 -2
BITMAP
0F80
3DE0
7070
7070
E038
E038
E038
E038
7070
7270
3AE0
0F80
03F0
00E0
ENDCHAR

STARTCHAR R
ENCODING 82
SWIDTH 740 0
DWIDTH 12 0
BBX 12 12 0 0
BITMAP
FF80
71C0
70C0
71C0
7180
7780
7F00
7380
7380
71C0
71C0
FBF0
ENDCHAR

STARTCHAR S
ENCODING 83
SWIDTH 680 0
DWIDTH 10 0
BBX 9 12 0 0
BITMAP
3E00
7700
E100
E000
F800
7E00
1F00
0780
8380
C380
7700
3E00
ENDCHAR

STARTCHAR T
ENCODING 84
SWIDTH 680 0
DWIDTH 11 0
BBX 11 12 0 0
BITMAP
FFE0
CE60
8E20
0E00
0E00
0E00
0E00
0E00
0E00
0E00
0E00
1F00
ENDCHAR

STARTCHAR U
ENCODING 85
SWIDTH 760 0
DWIDTH 12 0
BBX 11 12 0 0
BITMAP
F8E0
7040
7040
7040
7040
7040
7040
7040
7040
7040
3880
1F00
ENDCHAR

STARTCHAR V
ENCODING 86
SWIDTH 740 0
DWIDTH 12 0
BBX 12 12 0 0
BITMAP
F870
7020
7020
3860
3840
3840
1CC0
1C80
0F80
0F00
0700
0600
ENDCHAR

STARTCHAR W
ENCODING 87
SWIDTH 1000 0
DWIDTH 16 0
BBX 15 12 0 0
BITMAP
F3CE
6184
71C4
71C4
73CC
32C8
3AE8
3AE8
1C70
1C70
1C70
0820
ENDCHAR

STARTCHAR X
ENCODING 88
SWIDTH 740 0
DWIDTH 11 0
BBX 11 12 0 0
BITMAP
F9E0
70C0
3980
3D00
1F00
0E00
0E00
1F00
1780
3380
61C0
F3E0
ENDCHAR

STARTCHAR Y
ENCODING 89
SWIDTH 740 0
DWIDTH 11 0
BBX 11 12 0 0
BITMAP
F8E0
7040
70C0
3880
1D00
1D00
0E00
0E00
0E00
0E00
0E00
1F00
ENDCHAR

STARTCHAR Z
ENCODING 90
SWIDTH 620 0
DWIDTH 10 0
BBX 9 12 0 0
BITMAP
7F80
6380
4700
0700
0E00
1C00
1C00
3800
7000
7080
E180
FF80
ENDCHAR

STARTCHAR bracketleft
ENCODING 91
SWIDTH 320 0
DWIDTH 5 0
BBX 3 15 1 -3
BITMAP
E0
C0
C0
C0
C0
C0
C0
C0
C0
C0
C0
C0
C0
C0
E0
ENDCHAR

STARTCHAR backslash
ENCODING 92
SWIDTH 640 0
DWIDTH 10 0
BBX 6 12 2 0
BITMAP
80
80
40
40
20
20
10
10
08
08
04
04
ENDCHAR

STARTCHAR bracketright
ENCODING 93
SWIDTH 320 0
DWIDTH 5 0
BBX 3 15 0 -3
BITMAP
E0
60
60
60
60
60
60
60
60
60
60
60
60
60
E0
ENDCHAR

STARTCHAR asciicircum
ENCODING 94
SWIDTH 660 0
DWIDTH 10 0
BBX 9 9 0 3
BITMAP
0800
1C00
1400
3600
2200
6300
4100
C180
C180
ENDCHAR

STARTCHAR underscore
ENCODING 95
SWIDTH 500 0
DWIDTH 8 0
BBX 8 2 0 -3
BITMAP
FF
FF
ENDCHAR

STARTCHAR quoteleft
ENCODING 96
SWIDTH 320 0
DWIDTH 5 0
BBX 4 5 0 7
BITMAP
10
20
60
F0
60
ENDCHAR

STARTCHAR a
ENCODING 97
SWIDTH 580 0
DWIDTH 9 0
BBX 8 8 0 0
BITMAP
7C
E6
46
1E
76
C6
EE
7B
ENDCHAR

STARTCHAR b
ENCODING 98
SWIDTH 620 0
DWIDTH 10 0
BBX 9 12 0 0
BITMAP
6000
E000
6000
6000
6E00
7700
6300
6380
6380
6300
7700
3C00
ENDCHAR

STARTCHAR c
ENCODING 99
SWIDTH 520 0
DWIDTH 8 0
BBX 7 8 0 0
BITMAP
1C
76
62
E0
E0
62
76
3C
ENDCHAR

STARTCHAR d
ENCODING 100
SWIDTH 620 0
DWIDTH 10 0
BBX 9 12 0 0
BITMAP
0300
0700
0300
0300
1B00
7700
6300
E300
E300
6300
7700
3B80
ENDCHAR

STARTCHAR e
ENCODING 101
SWIDTH 560 0
DWIDTH 9 0
BBX 8 8 0 0
BITMAP
1E
73
63
E7
FC
61
73
3E
ENDCHAR

STARTCHAR f
ENCODING 102
SWIDTH 360 0
DWIDTH 5 0
BBX 5 12 0 0
BITMAP
38
68
60
60
F0
60
60
60
60
60
60
F0
ENDCHAR

STARTCHAR g
ENCODING 103
SWIDTH 600 0
DWIDTH 9 0
BBX 9 11 0 -3
BITMAP
1F80
7E00
6600
C300
C300
6600
7C00
1F00
4300
E700
7C00
ENDCHAR

STARTCHAR h
ENCODING 104
SWIDTH 620 0
DWIDTH 10 0
BBX 9 12 0 0
BITMAP
6000
E000
6000
6000
6E00
7700
6300
6300
6300
6300
6300
F780
ENDCHAR

STARTCHAR i
ENCODING 105
SWIDTH 300 0
DWIDTH 5 0
BBX 4 12 0 0
BITMAP
60
F0
60
00
60
E0
60
60
60
60
60
F0
ENDCHAR

STARTCHAR j
ENCODING 106
SWIDTH 300 0
DWIDTH 5 0
BBX 5 15 -1 -3
BITMAP
30
78
30
00
30
70
30
30
30
30
30
30
30
B0
E0
ENDCHAR

STARTCHAR k
ENCODING 107
SWIDTH 600 0
DWIDTH 9 0
BBX 9 12 0 0
BITMAP
6000
E000
6000
6000
6700
6600
6400
6C00
7E00
6700
6300
F780
ENDCHAR

STARTCHAR l
ENCODING 108
SWIDTH 300 0
DWIDTH 5 0
BBX 4 12 0 0
BITMAP
60
E0
60
60
60
60
60
60
60
60
60
F0
ENDCHAR

STARTCHAR m
ENCODING 109
SWIDTH 920 0
DWIDTH 14 0
BBX 14 8 0 0
BITMAP
6E70
F7B8
6318
6318
6318
6318
6318
F7BC
ENDCHAR

STARTCHAR n
ENCODING 110
SWIDTH 620 0
DWIDTH 10 0
BBX 9 8 0 0
BITMAP
6E00
F700
6300
6300
6300
6300
6300
F780
ENDCHAR

STARTCHAR o
ENCODING 111
SWIDTH 620 0
DWIDTH 10 0
BBX 9 8 0 0
BITMAP
1C00
7700
6300
E380
E380
6300
7700
1C00
ENDCHAR

STARTCHAR p
ENCODING 112
SWIDTH 640 0
DWIDTH 10 0
BBX 9 11 0 -3
BITMAP
6E00
F700
6300
6380
6380
6300
6700
6C00
6000
6000
F000
ENDCHAR

STARTCHAR q
ENCODING 113
SWIDTH 620 0
DWIDTH 10 0
BBX 9 11 0 -3
BITMAP
1D00
7700
6300
E300
E300
6300
7700
3B00
0300
0300
0780
ENDCHAR

STARTCHAR r
ENCODING 114
SWIDTH 440 0
DWIDTH 6 0
BBX 6 8 0 0
BITMAP
6C
FC
60
60
60
60
60
F0
ENDCHAR

STARTCHAR s
ENCODING 115
SWIDTH 500 0
DWIDTH 8 0
BBX 7 8 0 0
BITMAP
3C
76
60
7C
3E
06
CE
7C
ENDCHAR

STARTCHAR t
ENCODING 116
SWIDTH 380 0
DWIDTH 6 0
BBX 5 11 0 0
BITMAP
20
60
60
F8
60
60
60
60
60
60
78
ENDCHAR

STARTCHAR u
ENCODING 117
SWIDTH 620 0
DWIDTH 10 0
BBX 9 8 0 0
BITMAP
6300
E700
6300
6300
6300
6300
6700
3B80
ENDCHAR

STARTCHAR v
ENCODING 118
SWIDTH 540 0
DWIDTH 8 0
BBX 8 8 0 0
BITMAP
F7
62
62
76
74
34
18
18
ENDCHAR

STARTCHAR w
ENCODING 119
SWIDTH 800 0
DWIDTH 12 0
BBX 12 8 0 0
BITMAP
F770
6620
6620
7760
3340
37C0
1980
1980
ENDCHAR

STARTCHAR x
ENCODING 120
SWIDTH 560 0
DWIDTH 9 0
BBX 8 8 0 0
BITMAP
F7
62
74
38
1C
2E
46
EF
ENDCHAR

STARTCHAR y
ENCODING 121
SWIDTH 540 0
DWIDTH 8 0
BBX 8 11 0 -3
BITMAP
F7
62
62
62
76
34
34
1C
08
58
70
ENDCHAR

STARTCHAR z
ENCODING 122
SWIDTH 500 0
DWIDTH 8 0
BBX 7 8 0 0
BITMAP
FE
8C
1C
38
30
70
E2
FE
ENDCHAR

STARTCHAR braceleft
ENCODING 123
SWIDTH 340 0
DWIDTH 5 0
BBX 4 15 0 -3
BITMAP
30
60
60
60
60
60
60
C0
60
60
60
60
60
60
30
ENDCHAR

STARTCHAR bar
ENCODING 124
SWIDTH 660 0
DWIDTH 10 0
BBX 1 12 4 0
BITMAP
80
80
80
80
80
80
80
80
80
80
80
80
ENDCHAR

STARTCHAR braceright
ENCODING 125
SWIDTH 340 0
DWIDTH 5 0
BBX 4 15 0 -3
BITMAP
C0
60
60
60
60
60
60
30
60
60
60
60
60
60
C0
ENDCHAR

STARTCHAR asciitilde
ENCODING 126
SWIDTH 660 0
DWIDTH 11 0
BBX 8 3 1 3
BITMAP
71
FF
8E
ENDCHAR

STARTCHAR space
ENCODING 160
SWIDTH 340 0
DWIDTH 5 0
BBX 1 1 0 0
BITMAP
00
ENDCHAR

STARTCHAR exclamdown
ENCODING 161
SWIDTH 360 0
DWIDTH 6 0
BBX 3 13 1 -4
BITMAP
40
E0
E0
40
00
40
E0
E0
E0
E0
E0
E0
40
ENDCHAR

STARTCHAR cent
ENCODING 162
SWIDTH 680 0
DWIDTH 11 0
BBX 7 11 2 1
BITMAP
10
10
3C
76
E2
E0
E2
76
3C
10
10
ENDCHAR

STARTCHAR sterling
ENCODING 163
SWIDTH 680 0
DWIDTH 11 0
BBX 10 12 1 0
BITMAP
1F00
3980
7180
7000
7000
FE00
3800
3800
3000
7C40
7F80
8F00
ENDCHAR

STARTCHAR currency
ENCODING 164
SWIDTH 740 0
DWIDTH 11 0
BBX 8 8 1 2
BITMAP
BD
66
C3
81
81
C3
66
BD
ENDCHAR

STARTCHAR yen
ENCODING 165
SWIDTH 760 0
DWIDTH 11 0
BBX 10 12 0 0
BITMAP
F9C0
7080
7180
3900
3B00
1E00
3F00
0C00
3F00
0C00
0C00
1E00
ENDCHAR

STARTCHAR brokenbar
ENCODING 166
SWIDTH 660 0
DWIDTH 10 0
BBX 1 12 4 0
BITMAP
80
80
80
80
80
00
00
80
80
80
80
80
ENDCHAR

STARTCHAR section
ENCODING 167
SWIDTH 600 0
DWIDTH 9 0
BBX 8 15 0 -3
BITMAP
3E
63
C1
E0
FC
7F
CF
C3
F3
FE
3F
07
83
E6
7C
ENDCHAR

STARTCHAR dieresis
ENCODING 168
SWIDTH 540 0
DWIDTH 8 0
BBX 5 2 1 9
BITMAP
D8
D8
ENDCHAR

STARTCHAR copyright
ENCODING 169
SWIDTH 840 0
DWIDTH 13 0
BBX 12 12 0 0
BITMAP
1F80
6060
4F20
D9B0
9090
9010
9010
9090
D9B0
4F20
6060
1F80
ENDCHAR

STARTCHAR ordfeminine
ENCODING 170
SWIDTH 440 0
DWIDTH 7 0
BBX 5 7 1 5
BITMAP
70
98
78
D8
68
00
F8
ENDCHAR

STARTCHAR guillemotleft
ENCODING 171
SWIDTH 380 0
DWIDTH 6 0
BBX 6 6 0 2
BITMAP
24
48
D8
D8
48
24
ENDCHAR

STARTCHAR logicalnot
ENCODING 172
SWIDTH 660 0
DWIDTH 10 0
BBX 8 5 0 2
BITMAP
FF
FF
03
03
03
ENDCHAR

STARTCHAR hyphen
ENCODING 173
SWIDTH 340 0
DWIDTH 5 0
BBX 4 2 0 4
BITMAP
F0
F0
ENDCHAR

STARTCHAR registered
ENCODING 174
SWIDTH 840 0
DWIDTH 13 0
BBX 12 12 0 0
BITMAP
1F80
6060
5F20
C9B0
8890
8990
8E10
8B10
C990
48E0
6060
1F80
ENDCHAR

STARTCHAR macron
ENCODING 175
SWIDTH 440 0
DWIDTH 7 0
BBX 4 2 1 9
BITMAP
F0
F0
ENDCHAR

STARTCHAR degree
ENCODING 176
SWIDTH 400 0
DWIDTH 6 0
BBX 5 5 0 7
BITMAP
70
88
88
88
70
ENDCHAR

STARTCHAR plusminus
ENCODING 177
SWIDTH 660 0
DWIDTH 10 0
BBX 8 9 1 0
BITMAP
18
18
FF
FF
18
18
00
FF
FF
ENDCHAR

STARTCHAR twosuperior
ENCODING 178
SWIDTH 408 0
DWIDTH 6 0
BBX 5 7 0 5
BITMAP
70
98
98
30
60
C0
F8
ENDCHAR

STARTCHAR threesuperior
ENCODING 179
SWIDTH 408 0
DWIDTH 6 0
BBX 5 7 0 5
BITMAP
70
98
18
70
18
98
70
ENDCHAR

STARTCHAR acute
ENCODING 180
SWIDTH 380 0
DWIDTH 6 0
BBX 4 3 1 9
BITMAP
70
60
C0
ENDCHAR

STARTCHAR mu
ENCODING 181
SWIDTH 620 0
DWIDTH 10 0
BBX 9 11 0 -3
BITMAP
6300
E700
6300
6300
6300
6300
6700
7B80
6000
6000
6000
ENDCHAR

STARTCHAR paragraph
ENCODING 182
SWIDTH 780 0
DWIDTH 12 0
BBX 11 15 0 -3
BITMAP
3FE0
6280
C280
C280
C280
E280
7280
1E80
0280
0280
0280
0280
0280
0280
0280
ENDCHAR

STARTCHAR periodcentered
ENCODING 183
SWIDTH 340 0
DWIDTH 5 0
BBX 3 3 1 3
BITMAP
40
E0
40
ENDCHAR

STARTCHAR cedilla
ENCODING 184
SWIDTH 340 0
DWIDTH 5 0
BBX 3 4 1 -4
BITMAP
40
C0
20
C0
ENDCHAR

STARTCHAR onesuperior
ENCODING 185
SWIDTH 408 0
DWIDTH 6 0
BBX 4 7 1 5
BITMAP
20
E0
60
60
60
60
F0
ENDCHAR

STARTCHAR ordmasculine
ENCODING 186
SWIDTH 440 0
DWIDTH 7 0
BBX 5 7 1 5
BITMAP
70
D8
D8
D8
70
00
F8
ENDCHAR

STARTCHAR guillemotright
ENCODING 187
SWIDTH 380 0
DWIDTH 6 0
BBX 6 6 0 2
BITMAP
90
48
6C
6C
48
90
ENDCHAR

STARTCHAR onequarter
ENCODING 188
SWIDTH 1020 0
DWIDTH 16 0
BBX 13 12 1 0
BITMAP
2040
E080
6080
6100
6200
6230
F470
04B0
0930
11F8
1030
2078
ENDCHAR

STARTCHAR onehalf
ENCODING 189
SWIDTH 1020 0
DWIDTH 16 0
BBX 13 12 1 0
BITMAP
2040
E080
6080
6100
6200
6270
F498
0498
0830
1060
10C0
20F8
ENDCHAR

STARTCHAR threequarters
ENCODING 190
SWIDTH 1020 0
DWIDTH 16 0
BBX 14 12 1 0
BITMAP
7020
9840
1840
7080
1900
9918
7238
0258
0498
08FC
0818
103C
ENDCHAR

STARTCHAR questiondown
ENCODING 191
SWIDTH 540 0
DWIDTH 8 0
BBX 7 13 0 -4
BITMAP
18
3C
18
00
08
18
38
70
E0
C0
C6
E6
7C
ENDCHAR

STARTCHAR Agrave
ENCODING 192
SWIDTH 740 0
DWIDTH 12 0
BBX 12 16 0 0
BITMAP
1C00
0C00
0600
0000
0600
0E00
0F00
1F00
1380
3380
21C0
3FC0
61C0
40E0
40E0
E1F0
ENDCHAR

STARTCHAR Aacute
ENCODING 193
SWIDTH 740 0
DWIDTH 12 0
BBX 12 16 0 0
BITMAP
0700
0600
0C00
0000
0600
0E00
0F00
1F00
1380
3380
21C0
3FC0
61C0
40E0
40E0
E1F0
ENDCHAR

STARTCHAR Acircumflex
ENCODING 194
SWIDTH 740 0
DWIDTH 12 0
BBX 12 16 0 0
BITMAP
0400
0E00
1100
0000
0600
0E00
0F00
1F00
1380
3380
21C0
3FC0
61C0
40E0
40E0
E1F0
ENDCHAR

STARTCHAR Atilde
ENCODING 195
SWIDTH 740 0
DWIDTH 12 0
BBX 12 15 0 0
BITMAP
0E80
1700
0000
0600
0E00
0F00
1F00
1380
3380
21C0
3FC0
61C0
40E0
40E0
E1F0
ENDCHAR

STARTCHAR Adieresis
ENCODING 196
SWIDTH 740 0
DWIDTH 12 0
BBX 12 15 0 0
BITMAP
1980
1980
0000
0600
0E00
0F00
1F00
1380
3380
21C0
3FC0
61C0
40E0
40E0
E1F0
ENDCHAR

STARTCHAR Aring
ENCODING 197
SWIDTH 740 0
DWIDTH 12 0
BBX 12 16 0 0
BITMAP
0600
0900
0900
0600
0600
0E00
0F00
1F00
1380
3380
21C0
3FC0
61C0
40E0
40E0
E1F0
ENDCHAR

STARTCHAR AE
ENCODING 198
SWIDTH 1020 0
DWIDTH 16 0
BBX 15 12 0 0
BITMAP
07FC
0F8C
0B84
1B80
1388
33F8
2388
3F80
6380
4386
438C
E7FC
ENDCHAR

STARTCHAR Ccedilla
ENCODING 199
SWIDTH 760 0
DWIDTH 12 0
BBX 11 16 0 -4
BITMAP
0F80
3DE0
7060
7020
E000
E000
E000
E000
7020
7060
3DC0
0F00
0400
0C00
0200
0C00
ENDCHAR

STARTCHAR Egrave
ENCODING 200
SWIDTH 660 0
DWIDTH 10 0
BBX 10 16 0 0
BITMAP
3800
1800
0C00
0000
FF80
7180
7080
7000
7100
7F00
7100
7000
7000
70C0
7180
FF80
ENDCHAR

STARTCHAR Eacute
ENCODING 201
SWIDTH 660 0
DWIDTH 10 0
BBX 10 16 0 0
BITMAP
0E00
0C00
1800
0000
FF80
7180
7080
7000
7100
7F00
7100
7000
7000
70C0
7180
FF80
ENDCHAR

STARTCHAR Ecircumflex
ENCODING 202
SWIDTH 660 0
DWIDTH 10 0
BBX 10 16 0 0
BITMAP
0800
1C00
2200
0000
FF80
7180
7080
7000
7100
7F00
7100
7000
7000
70C0
7180
FF80
ENDCHAR

STARTCHAR Edieresis
ENCODING 203
SWIDTH 660 0
DWIDTH 10 0
BBX 10 15 0 0
BITMAP
3300
3300
0000
FF80
7180
7080
7000
7100
7F00
7100
7000
7000
70C0
7180
FF80
ENDCHAR

STARTCHAR Igrave
ENCODING 204
SWIDTH 340 0
DWIDTH 6 0
BBX 5 16 0 0
BITMAP
E0
60
30
00
F8
70
70
70
70
70
70
70
70
70
70
F8
ENDCHAR

STARTCHAR Iacute
ENCODING 205
SWIDTH 340 0
DWIDTH 6 0
BBX 5 16 0 0
BITMAP
38
30
60
00
F8
70
70
70
70
70
70
70
70
70
70
F8
ENDCHAR

STARTCHAR Icircumflex
ENCODING 206
SWIDTH 340 0
DWIDTH 6 0
BBX 5 16 0 0
BITMAP
20
70
88
00
F8
70
70
70
70
70
70
70
70
70
70
F8
ENDCHAR

STARTCHAR Idieresis
ENCODING 207
SWIDTH 340 0
DWIDTH 6 0
BBX 5 15 0 0
BITMAP
D8
D8
00
F8
70
70
70
70
70
70
70
70
70
70
F8
ENDCHAR

STARTCHAR Eth
ENCODING 208
SWIDTH 820 0
DWIDTH 13 0
BBX 12 12 0 0
BITMAP
FF00
73C0
70E0
70E0
7070
FC70
7070
7070
70E0
70E0
73C0
FF00
ENDCHAR

STARTCHAR Ntilde
ENCODING 209
SWIDTH 760 0
DWIDTH 12 0
BBX 11 15 0 0
BITMAP
0E80
1700
0000
F0E0
7840
7C40
5C40
5E40
4F40
4740
43C0
43C0
41C0
40C0
E0C0
ENDCHAR

STARTCHAR Ograve
ENCODING 210
SWIDTH 860 0
DWIDTH 14 0
BBX 13 16 0 0
BITMAP
0E00
0600
0300
0000
0F80
3DE0
7070
7070
E038
E038
E038
E038
7070
7070
3DE0
0F80
ENDCHAR

STARTCHAR Oacute
ENCODING 211
SWIDTH 860 0
DWIDTH 14 0
BBX 13 16 0 0
BITMAP
0380
0300
0600
0000
0F80
3DE0
7070
7070
E038
E038
E038
E038
7070
7070
3DE0
0F80
ENDCHAR

STARTCHAR Ocircumflex
ENCODING 212
SWIDTH 860 0
DWIDTH 14 0
BBX 13 16 0 0
BITMAP
0200
0700
0880
0000
0F80
3DE0
7070
7070
E038
E038
E038
E038
7070
7070
3DE0
0F80
ENDCHAR

STARTCHAR Otilde
ENCODING 213
SWIDTH 860 0
DWIDTH 14 0
BBX 13 15 0 0
BITMAP
0740
0B80
0000
0F80
3DE0
7070
7070
E038
E038
E038
E038
7070
7070
3DE0
0F80
ENDCHAR

STARTCHAR Odieresis
ENCODING 214
SWIDTH 860 0
DWIDTH 14 0
BBX 13 15 0 0
BITMAP
1980
1980
0000
0F80
3DE0
7070
7070
E038
E038
E038
E038
7070
7070
3DE0
0F80
ENDCHAR

STARTCHAR multiply
ENCODING 215
SWIDTH 660 0
DWIDTH 10 0
BBX 8 7 1 1
BITMAP
C3
66
3C
18
3C
66
C3
ENDCHAR

STARTCHAR Oslash
ENCODING 216
SWIDTH 860 0
DWIDTH 14 0
BBX 13 12 0 0
BITMAP
0F90
3DE0
7070
70F0
E138
E238
E238
E438
7870
7070
3DE0
4F80
ENDCHAR

STARTCHAR Ugrave
ENCODING 217
SWIDTH 760 0
DWIDTH 12 0
BBX 12 16 0 0
BITMAP
0E00
0600
0300
0000
F870
7020
7020
7020
7020
7020
7020
7020
7020
7040
38C0
1F00
ENDCHAR

STARTCHAR Uacute
ENCODING 218
SWIDTH 760 0
DWIDTH 12 0
BBX 12 16 0 0
BITMAP
0380
0300
0600
0000
F870
7020
7020
7020
7020
7020
7020
7020
7020
7040
38C0
1F00
ENDCHAR

STARTCHAR Ucircumflex
ENCODING 219
SWIDTH 760 0
DWIDTH 12 0
BBX 12 16 0 0
BITMAP
0200
0700
0880
0000
F870
7020
7020
7020
7020
7020
7020
7020
7020
7040
38C0
1F00
ENDCHAR

STARTCHAR Udieresis
ENCODING 220
SWIDTH 760 0
DWIDTH 12 0
BBX 12 15 0 0
BITMAP
0CC0
0CC0
0000
F870
7020
7020
7020
7020
7020
7020
7020
7020
7040
38C0
1F00
ENDCHAR

STARTCHAR Yacute
ENCODING 221
SWIDTH 740 0
DWIDTH 11 0
BBX 11 16 0 0
BITMAP
0380
0300
0600
0000
F8E0
7040
70C0
3880
1D00
1D00
0E00
0E00
0E00
0E00
0E00
1F00
ENDCHAR

STARTCHAR Thorn
ENCODING 222
SWIDTH 680 0
DWIDTH 11 0
BBX 10 12 0 0
BITMAP
F800
7000
7F00
7380
71C0
71C0
7180
7380
7E00
7000
7000
F800
ENDCHAR

STARTCHAR germandbls
ENCODING 223
SWIDTH 660 0
DWIDTH 10 0
BBX 9 12 0 0
BITMAP
1E00
3700
6300
6300
6600
6C00
6700
6380
6180
6980
6B80
E700
ENDCHAR

STARTCHAR agrave
ENCODING 224
SWIDTH 580 0
DWIDTH 9 0
BBX 8 12 0 0
BITMAP
70
30
18
00
7C
E6
46
1E
76
C6
EE
7B
ENDCHAR

STARTCHAR aacute
ENCODING 225
SWIDTH 580 0
DWIDTH 9 0
BBX 8 12 0 0
BITMAP
1C
18
30
00
7C
E6
46
1E
76
C6
EE
7B
ENDCHAR

STARTCHAR acircumflex
ENCODING 226
SWIDTH 580 0
DWIDTH 9 0
BBX 8 12 0 0
BITMAP
10
38
44
00
7C
E6
46
1E
76
C6
EE
7B
ENDCHAR

STARTCHAR atilde
ENCODING 227
SWIDTH 580 0
DWIDTH 9 0
BBX 8 11 0 0
BITMAP
3A
5C
00
7C
E6
46
1E
76
C6
EE
7B
ENDCHAR

STARTCHAR adieresis
ENCODING 228
SWIDTH 580 0
DWIDTH 9 0
BBX 8 11 0 0
BITMAP
6C
6C
00
7C
E6
46
1E
76
C6
EE
7B
ENDCHAR

STARTCHAR aring
ENCODING 229
SWIDTH 580 0
DWIDTH 9 0
BBX 8 13 0 0
BITMAP
18
24
24
18
00
7C
E6
46
1E
76
C6
EE
7B
ENDCHAR

STARTCHAR ae
ENCODING 230
SWIDTH 880 0
DWIDTH 14 0
BBX 13 8 0 0
BITMAP
7CF0
E798
4718
1F38
77E0
C708
EF98
79F0
ENDCHAR

STARTCHAR ccedilla
ENCODING 231
SWIDTH 520 0
DWIDTH 8 0
BBX 7 12 0 -4
BITMAP
1C
76
62
E0
E0
62
76
3C
10
30
08
30
ENDCHAR

STARTCHAR egrave
ENCODING 232
SWIDTH 560 0
DWIDTH 9 0
BBX 8 12 0 0
BITMAP
38
18
0C
00
1E
73
63
E7
FC
61
73
3E
ENDCHAR

STARTCHAR eacute
ENCODING 233
SWIDTH 560 0
DWIDTH 9 0
BBX 8 12 0 0
BITMAP
0E
0C
18
00
1E
73
63
E7
FC
61
73
3E
ENDCHAR

STARTCHAR ecircumflex
ENCODING 234
SWIDTH 560 0
DWIDTH 9 0
BBX 8 12 0 0
BITMAP
08
1C
22
00
1E
73
63
E7
FC
61
73
3E
ENDCHAR

STARTCHAR edieresis
ENCODING 235
SWIDTH 560 0
DWIDTH 9 0
BBX 8 11 0 0
BITMAP
36
36
00
1E
73
63
E7
FC
61
73
3E
ENDCHAR

STARTCHAR igrave
ENCODING 236
SWIDTH 300 0
DWIDTH 5 0
BBX 4 12 0 0
BITMAP
E0
60
30
00
60
E0
60
60
60
60
60
F0
ENDCHAR

STARTCHAR iacute
ENCODING 237
SWIDTH 300 0
DWIDTH 5 0
BBX 5 12 0 0
BITMAP
38
30
60
00
60
E0
60
60
60
60
60
F0
ENDCHAR

STARTCHAR icircumflex
ENCODING 238
SWIDTH 300 0
DWIDTH 5 0
BBX 5 12 -1 0
BITMAP
20
70
88
00
30
70
30
30
30
30
30
78
ENDCHAR

STARTCHAR idieresis
ENCODING 239
SWIDTH 300 0
DWIDTH 5 0
BBX 5 11 -1 0
BITMAP
D8
D8
00
30
70
30
30
30
30
30
78
ENDCHAR

STARTCHAR eth
ENCODING 240
SWIDTH 660 0
DWIDTH 10 0
BBX 9 13 0 0
BITMAP
0400
F800
3C00
4E00
0600
1F00
7700
6380
E380
E380
6300
7700
1C00
ENDCHAR

STARTCHAR ntilde
ENCODING 241
SWIDTH 620 0
DWIDTH 10 0
BBX 9 11 0 0
BITMAP
3A00
5C00
0000
6E00
F700
6300
6300
6300
6300
6300
F780
ENDCHAR

STARTCHAR ograve
ENCODING 242
SWIDTH 620 0
DWIDTH 10 0
BBX 9 12 0 0
BITMAP
3800
1800
0C00
0000
1C00
7700
6300
E380
E380
6300
7700
1C00
ENDCHAR

STARTCHAR oacute
ENCODING 243
SWIDTH 620 0
DWIDTH 10 0
BBX 9 12 0 0
BITMAP
0E00
0C00
1800
0000
1C00
7700
6300
E380
E380
6300
7700
1C00
ENDCHAR

STARTCHAR ocircumflex
ENCODING 244
SWIDTH 620 0
DWIDTH 10 0
BBX 9 12 0 0
BITMAP
0800
1C00
2200
0000
1C00
7700
6300
E380
E380
6300
7700
1C00
ENDCHAR

STARTCHAR otilde
ENCODING 245
SWIDTH 620 0
DWIDTH 10 0
BBX 9 11 0 0
BITMAP
3A00
5C00
0000
1C00
7700
6300
E380
E380
6300
7700
1C00
ENDCHAR

STARTCHAR odieresis
ENCODING 246
SWIDTH 620 0
DWIDTH 10 0
BBX 9 11 0 0
BITMAP
3600
3600
0000
1C00
7700
6300
E380
E380
6300
7700
1C00
ENDCHAR

STARTCHAR divide
ENCODING 247
SWIDTH 660 0
DWIDTH 10 0
BBX 8 8 1 0
BITMAP
18
18
00
FF
FF
00
18
18
ENDCHAR

STARTCHAR oslash
ENCODING 248
SWIDTH 620 0
DWIDTH 10 0
BBX 9 8 0 0
BITMAP
1C80
7700
6700
EB80
EB80
7300
7700
9C00
ENDCHAR

STARTCHAR ugrave
ENCODING 249
SWIDTH 620 0
DWIDTH 10 0
BBX 9 12 0 0
BITMAP
3800
1800
0C00
0000
6300
E700
6300
6300
6300
6300
6700
3B80
ENDCHAR

STARTCHAR uacute
ENCODING 250
SWIDTH 620 0
DWIDTH 10 0
BBX 9 12 0 0
BITMAP
0E00
0C00
1800
0000
6300
E700
6300
6300
6300
6300
6700
3B80
ENDCHAR

STARTCHAR ucircumflex
ENCODING 251
SWIDTH 620 0
DWIDTH 10 0
BBX 9 12 0 0
BITMAP
0800
1C00
2200
0000
6300
E700
6300
6300
6300
6300
6700
3B80
ENDCHAR

STARTCHAR udieresis
ENCODING 252
SWIDTH 620 0
DWIDTH 10 0
BBX 9 11 0 0
BITMAP
3600
3600
0000
6300
E700
6300
6300
6300
6300
6700
3B80
ENDCHAR

STARTCHAR yacute
ENCODING 253
SWIDTH 540 0
DWIDTH 8 0
BBX 8 15 0 -3
BITMAP
0E
0C
18
00
F7
62
62
62
76
34
34
1C
08
58
70
ENDCHAR

STARTCHAR thorn
ENCODING 254
SWIDTH 640 0
DWIDTH 10 0
BBX 9 15 0 -3
BITMAP
6000
E000
6000
6000
6E00
7700
6300
6380
6380
6300
6700
6C00
6000
6000
F000
ENDCHAR

STARTCHAR ydieresis
ENCODING 255
SWIDTH 540 0
DWIDTH 8 0
BBX 8 14 0 -3
BITMAP
36
36
00
F7
62
62
62
76
34
34
1C
08
58
70
ENDCHAR
ENDFONT
